<svg xmlns="http://www.w3.org/2000/svg" width="400" height="400" viewBox="0 0 400 400"><g fill="#0D1C23"><path d="M308.225 110.437c-.628-1.38-1.02-4.573-1.563-8.99-2.887-23.494-9.646-78.51-71.096-78.81-21.693-.107-35.858-.67-46.2-1.084-5.94-.237-10.632-.423-14.516-.423-5.803 0-9.78.418-14.182 1.492-8.484 2.068-14.11 6.783-27.7 18.173-7.31 6.125-17.317 14.513-31.3 25.368-.02.025-6.96 7.338-10.79 25.806-3.538 17.066-5.067 47.41 7.746 95.045l.31.85c2.993 8.214 10.94 30.03 12.1 98.675-.28 4.596 1.806 16.68 6.058 22.75.716 1.023 1.557 3.252 2.72 6.336 4.352 11.536 13.407 35.54 36.34 50.067 10.02 6.347 27.688 13.178 42.805 13.178 12.952 0 27.408-4.28 44.195-13.083 26.418-13.838 35.628-37.743 41.925-71.828 5.112-27.682 5.52-48.644 5.883-67.14.22-11.255.424-21.11 1.607-30.96 2.983-1.022 3.786-3.438 3.803-3.5l1.316-8.755c.01-.045.24-1.13-.525-2.163-.385-.52-.95-.925-1.68-1.217 3.047-11.646 7.39-20.504 10.795-27.443 2.184-4.452 3.908-7.968 4.46-10.652 1.747-8.502 1.044-23.862-2.51-31.693zm-32.18 137.92c-4.265 6.922-9.76 10.827-14.173 13.965-5.015 3.564-8.638 6.14-8.638 11.16 0 5.337 1.125 8.66 2.212 11.877.917 2.71 1.783 5.27 1.785 8.69 0 7.86-10.763 32.613-29.437 32.613-3.037 0-5.938-2.03-8.39-5.87-4.108-6.433-6.093-16.547-4.634-19.693.4-.862.377-1.62-.068-2.32-2.063-3.228-12.132-4.23-15.567-4.23h-.172c-3.555.04-14.178.91-16.292 4.262-.432.687-.45 1.435-.054 2.29 1.806 3.893.778 13.62-3.208 19.863-2.38 3.73-5.47 5.7-8.936 5.7-15.48 0-25.354-21.417-25.354-32.615 0-6.69.936-10.904 1.688-14.29.502-2.257.935-4.207.935-6.276 0-1.247-2.924-4.075-6.626-7.655-9.627-9.31-27.104-26.225-28.898-49.618 1.578 3.388 3.826 6.296 7.025 7.917 4.346 2.2 13.02 3.414 24.423 3.414 17.562 0 38.922-3.027 40.14-6.93 2.406-7.7 7.992-20.84 9.825-21.3.81-.203 2.156-.307 4-.307 1.91 0 3.96.11 5.353.185 1.29.067 4.73 7.576 7.24 13.057 2.152 4.695 4.01 8.75 5.033 9.774.14.14.278.287.42.438 2.27 2.41 5.7 6.05 36.93 6.05 18.582 0 26.77-2.71 30.584-5.99-1.484 10.57-3.733 20.31-7.14 25.836zm-157.87-64.44c6.83-1.394 16.985-2.1 30.187-2.1 16.664 0 32.67 1.173 33.853 1.455 1.88.446 1.88 9.412 1.88 14.77 0 6.793-7.135 20.88-9.306 21.966-2.288 1.144-18.288 3.372-28.126 3.372-10.032 0-22.834-1.308-24.952-3.058l-.2-.165c-2.07-1.694-4.21-3.446-5.752-18-1.48-13.95 2.002-17.832 2.416-18.24zm95.763-.148c1.304-.306 19.635-1.776 37.598-1.776 12.228 0 21.686.656 28.115 1.95.423.406 3.96 4.283 2.452 18.217-1.563 14.532-3.734 16.284-5.835 17.98l-.206.165c-2.15 1.75-15.144 3.058-25.326 3.058-10.29 0-25.663-1.34-27.88-2.43-2.184-1.075-10.513-17.326-10.513-24.206l-.003-1.888c-.017-5.5-.033-10.69 1.6-11.07zm72.118-4.566c-11.556-.794-23.348-1.22-35.18-1.22-21.33 0-37.538 1.314-44.46 1.875-1.88.15-3.12.252-3.725.27-2.23.066-4.09-.012-5.853-.087-1.616-.07-3.113-.135-4.68-.073-7.295-1.776-27.987-2.41-44.938-2.41-10.4 0-27.944.297-36.605 1.305-.416-5.08-.876-9.87-1.317-14.442-1.037-10.75-2.017-20.905-2.017-31.217 0-15.633 7.93-21.405 17.968-28.71 4.88-3.554 10.414-7.58 15.778-13.33 4.12-4.412 8.33-6.557 12.876-6.557 6.063 0 11.963 3.668 18.795 7.917 8.506 5.29 18.147 11.287 30.418 11.287 6.084 0 10.476 1.757 14.35 3.308 3.352 1.34 6.517 2.607 10.328 2.607 3.593 0 6.83-1.102 10.58-2.376 4.882-1.66 10.416-3.54 18.357-3.54 19.902 0 29.338 58.434 29.338 72.85 0 .51 0 1.378-.012 2.54zM230.17 271.685c-2.138-1.153-4.35-2.347-6.503-4.567-.985-1.017-1.963-2.322-2.998-3.704-2.605-3.477-5.556-7.418-9.435-7.418-3.594 0-6.063.886-8.047 1.598-1.442.518-2.687.964-4.003.964h-.063c-1.267-.014-2.266-.446-3.422-.948-1.666-.72-3.74-1.62-7.46-1.62-4.57 0-7.068 2.753-9.713 5.666-1.042 1.148-2.12 2.336-3.358 3.386-1.884 1.598-3.878 3.134-5.807 4.62-2.603 2.004-5.062 3.898-7.212 5.89-2.77 2.568-4.328 6.142-3.546 8.135.292.744 1.043 1.63 2.963 1.63.8 0 .976-.297 1.296-.837.513-.864 1.58-2.664 6.728-6.085 4.522-3.008 17.824-4.075 27.842-4.075.6 0 1.163.005 1.685.013 5.1.077 22.334.672 29.97 5.068 4.094 2.356 5.384 3.944 6.237 4.995.987 1.217 1.396 1.72 4.534 1.72.192 0 .35-.096.442-.27.524-.977-1.33-5.37-3.888-9.218-1.632-2.455-3.87-3.663-6.24-4.942zM144.638 161.494c-.68 0-1.31.005-1.89.01-.486.004-.934.007-1.34.007-6.46 0-16.747 9.803-18.095 12.742-.093.204-.378.825-.003 1.26.176.204.346.302 2.254.302 2.835 0 8.447-.24 14.946-.515 8.33-.355 17.774-.757 23.854-.757 4.464 0 5.62.226 5.91.36 1.87.86 6.287 2.11 8.956 2.11 1.217 0 1.938-.276 2.205-.843.36-.768-.336-1.61-.597-1.92-11.44-11.434-26.138-12.756-36.2-12.756zM249.094 162.664c-1.036.04-2.107.08-3.237.09-14.152.117-27.747 7.973-29.13 11.276-.332.795-.023 1.284.19 1.503.176.183.304.315 3.004.315 4.747 0 15.124-.445 23.463-.803 6.063-.26 11.3-.485 13.023-.485l.325.004c2.657.082 6.1.653 9.14 1.156 2.764.458 5.375.89 6.992.89.794 0 1.745-.083 2.054-.74.31-.656-.272-1.357-.495-1.622-9.762-9.76-15.503-11.668-22.12-11.668-1.047.002-2.107.042-3.206.084z"/></g></svg>