<?xml version="1.0" encoding="utf-8"?>
<!-- Generator: Adobe Illustrator 16.0.0, SVG Export Plug-In . SVG Version: 6.00 Build 0)  -->
<!DOCTYPE svg PUBLIC "-//W3C//DTD SVG 1.1//EN" "http://www.w3.org/Graphics/SVG/1.1/DTD/svg11.dtd">
<svg version="1.1" id="Logo" xmlns="http://www.w3.org/2000/svg" xmlns:xlink="http://www.w3.org/1999/xlink" x="0px" y="0px"
	 width="400px" height="400px" viewBox="0 0 400 400" enable-background="new 0 0 400 400" xml:space="preserve">
<g>
	<path fill="#0D1C23" d="M308.225,110.437c-0.628-1.381-1.02-4.573-1.563-8.99c-2.887-23.494-9.646-78.511-71.096-78.811
		c-21.693-0.106-35.858-0.67-46.201-1.083c-5.94-0.237-10.631-0.423-14.515-0.423c-5.803,0-9.779,0.418-14.182,1.492
		c-8.484,2.068-14.11,6.783-27.701,18.173c-7.308,6.125-17.316,14.513-31.3,25.368c-0.018,0.025-6.958,7.338-10.788,25.806
		c-3.539,17.067-5.068,47.41,7.745,95.046l0.311,0.851c2.992,8.213,10.94,30.028,12.1,98.674c-0.282,4.596,1.805,16.679,6.057,22.75
		c0.716,1.023,1.557,3.252,2.72,6.336c4.352,11.536,13.407,35.54,36.341,50.067c10.019,6.347,27.687,13.178,42.804,13.178
		c12.952-0.002,27.408-4.281,44.195-13.084c26.418-13.838,35.628-37.743,41.925-71.828c5.112-27.681,5.521-48.643,5.883-67.138
		c0.22-11.256,0.424-21.111,1.607-30.961c2.983-1.022,3.786-3.438,3.803-3.499l1.316-8.756c0.01-0.045,0.24-1.13-0.525-2.163
		c-0.386-0.521-0.95-0.925-1.68-1.217c3.046-11.646,7.39-20.504,10.794-27.443c2.184-4.452,3.908-7.968,4.459-10.652
		C312.482,133.628,311.779,118.268,308.225,110.437z M276.046,248.358c-4.266,6.921-9.76,10.826-14.174,13.964
		c-5.015,3.564-8.638,6.14-8.638,11.161c0,5.336,1.125,8.66,2.212,11.876c0.917,2.71,1.783,5.271,1.785,8.69
		c0,7.862-10.764,32.614-29.438,32.614c-3.037,0-5.938-2.03-8.391-5.871c-4.107-6.432-6.092-16.546-4.633-19.692
		c0.4-0.862,0.378-1.621-0.067-2.319c-2.063-3.229-12.132-4.232-15.567-4.232l-0.172,0.001c-3.555,0.041-14.178,0.911-16.292,4.262
		c-0.433,0.687-0.451,1.435-0.055,2.289c1.806,3.894,0.778,13.622-3.208,19.864c-2.38,3.729-5.47,5.699-8.936,5.699
		c-15.48,0-25.354-21.416-25.354-32.614c0-6.691,0.936-10.904,1.688-14.289c0.502-2.258,0.935-4.208,0.935-6.277
		c0-1.247-2.925-4.075-6.627-7.655c-9.627-9.309-27.104-26.224-28.898-49.617c1.578,3.388,3.826,6.296,7.025,7.917
		c4.345,2.202,13.018,3.415,24.422,3.415c17.562,0,38.922-3.027,40.141-6.931c2.405-7.699,7.991-20.84,9.824-21.298
		c0.811-0.204,2.156-0.308,3.999-0.308c1.912,0,3.96,0.11,5.354,0.185c1.29,0.067,4.729,7.576,7.24,13.057
		c2.151,4.696,4.009,8.752,5.032,9.775c0.141,0.141,0.278,0.287,0.421,0.438c2.27,2.409,5.7,6.049,36.929,6.049
		c18.582,0,26.77-2.71,30.584-5.99C281.703,233.092,279.454,242.832,276.046,248.358z M118.176,183.918
		c6.829-1.395,16.984-2.102,30.186-2.102c16.664,0,32.669,1.174,33.853,1.456c1.879,0.446,1.879,9.412,1.879,14.769
		c0,6.794-7.134,20.881-9.305,21.967c-2.287,1.144-18.287,3.372-28.125,3.372c-10.032,0-22.834-1.308-24.952-3.058l-0.201-0.165
		c-2.069-1.694-4.208-3.446-5.751-17.999C114.279,188.208,117.762,184.325,118.176,183.918z M213.938,183.769
		c1.304-0.305,19.635-1.775,37.598-1.775c12.228,0,21.686,0.656,28.115,1.949c0.422,0.407,3.959,4.284,2.451,18.218
		c-1.563,14.531-3.734,16.283-5.835,17.978l-0.206,0.166c-2.15,1.75-15.145,3.058-25.327,3.058c-10.291,0-25.663-1.339-27.879-2.429
		c-2.185-1.076-10.514-17.327-10.514-24.207l-0.004-1.888C212.32,189.341,212.304,184.149,213.938,183.769z M286.056,179.204
		c-11.556-0.794-23.348-1.22-35.181-1.22c-21.329,0-37.537,1.314-44.459,1.875c-1.88,0.152-3.121,0.253-3.725,0.272
		c-2.232,0.065-4.091-0.013-5.854-0.088c-1.616-0.07-3.113-0.135-4.68-0.073c-7.295-1.776-27.987-2.41-44.938-2.41
		c-10.4,0-27.943,0.297-36.604,1.305c-0.416-5.081-0.876-9.869-1.317-14.442c-1.037-10.75-2.017-20.905-2.017-31.217
		c0-15.633,7.929-21.405,17.967-28.711c4.881-3.553,10.414-7.58,15.778-13.329c4.119-4.412,8.331-6.557,12.876-6.557
		c6.063,0,11.963,3.669,18.795,7.918c8.506,5.291,18.147,11.287,30.418,11.287c6.084,0,10.476,1.757,14.351,3.308
		c3.351,1.341,6.516,2.607,10.327,2.607c3.593,0,6.831-1.101,10.58-2.375c4.882-1.659,10.416-3.54,18.357-3.54
		c19.902,0,29.338,58.434,29.338,72.851C286.069,177.173,286.067,178.042,286.056,179.204z"/>
	<path fill="#0D1C23" d="M230.171,271.685c-2.139-1.153-4.35-2.347-6.504-4.567c-0.985-1.017-1.963-2.322-2.998-3.704
		c-2.604-3.477-5.555-7.418-9.434-7.418c-3.594,0-6.063,0.886-8.047,1.598c-1.442,0.518-2.687,0.964-4.003,0.964h-0.063
		c-1.267-0.014-2.266-0.446-3.422-0.948c-1.666-0.721-3.739-1.619-7.459-1.619c-4.57,0-7.069,2.752-9.714,5.665
		c-1.042,1.148-2.121,2.336-3.358,3.386c-1.883,1.598-3.877,3.134-5.806,4.619c-2.603,2.005-5.062,3.899-7.212,5.891
		c-2.771,2.568-4.329,6.142-3.547,8.135c0.292,0.744,1.043,1.631,2.963,1.631c0.799,0,0.976-0.298,1.296-0.838
		c0.513-0.864,1.58-2.664,6.728-6.085c4.521-3.008,17.823-4.075,27.841-4.075c0.599,0,1.163,0.005,1.685,0.013
		c5.1,0.077,22.334,0.672,29.971,5.068c4.093,2.355,5.383,3.943,6.236,4.994c0.987,1.217,1.396,1.72,4.534,1.72
		c0.192,0,0.35-0.096,0.442-0.269c0.524-0.978-1.329-5.371-3.888-9.219C234.78,274.172,232.541,272.964,230.171,271.685z"/>
	<path fill="#0D1C23" d="M144.638,161.494c-0.679,0-1.311,0.005-1.89,0.01c-0.486,0.004-0.934,0.007-1.34,0.007
		c-6.46,0-16.747,9.802-18.095,12.741c-0.093,0.204-0.378,0.825-0.003,1.26c0.176,0.204,0.346,0.302,2.254,0.302
		c2.835,0,8.447-0.239,14.946-0.515c8.331-0.354,17.774-0.756,23.854-0.756c4.464,0,5.62,0.226,5.911,0.36
		c1.869,0.86,6.286,2.11,8.955,2.11c1.217,0,1.938-0.276,2.205-0.843c0.361-0.768-0.336-1.609-0.597-1.92
		C169.399,162.816,154.7,161.494,144.638,161.494z"/>
	<path fill="#0D1C23" d="M249.094,162.664c-1.036,0.04-2.107,0.081-3.237,0.089c-14.152,0.118-27.747,7.974-29.13,11.277
		c-0.332,0.795-0.023,1.284,0.19,1.503c0.176,0.183,0.304,0.315,3.004,0.315c4.746,0,15.123-0.445,23.462-0.803
		c6.063-0.26,11.3-0.485,13.023-0.485l0.325,0.004c2.656,0.082,6.1,0.653,9.139,1.156c2.764,0.458,5.375,0.891,6.992,0.891
		c0.794,0,1.745-0.084,2.054-0.742c0.309-0.655-0.272-1.356-0.495-1.621c-9.763-9.759-15.504-11.668-22.122-11.668
		C251.253,162.582,250.193,162.622,249.094,162.664z"/>
</g>
</svg>
